<?xml version="1.0" encoding="UTF-8"?>
<svg width="81px" height="19px" viewBox="0 0 81 19" version="1.1" xmlns="http://www.w3.org/2000/svg" xmlns:xlink="http://www.w3.org/1999/xlink">
    <!-- Generator: Sketch 52.1 (67048) - http://www.bohemiancoding.com/sketch -->
    <title>AirPlay</title>
    <desc>Created with Sketch.</desc>
    <g id="Landing_Page" stroke="none" stroke-width="1" fill="none" fill-rule="evenodd">
        <g id="DTC_Landing_Page" transform="translate(-1004.000000, -7118.000000)" fill="#FFFFFF">
            <g id="Devices" transform="translate(0.000000, 6234.000000)">
                <g id="Logos" transform="translate(355.000000, 882.000000)">
                    <g id="AirPlay" transform="translate(649.000000, 2.630631)">
                        <path d="M34.8995284,14.4684685 L33.8822142,11.5167159 L29.6434051,11.5167159 L28.618384,14.4684685 L26.8457911,14.4684685 L30.8610994,3.34737472 L32.7184685,3.34737472 L36.7337767,14.4684685 L34.8995284,14.4684685 Z M31.7011543,5.36658925 L30.0826999,10.0678139 L33.4429195,10.0678139 L31.832172,5.36658925 L31.7011543,5.36658925 Z M38.6379012,14.4684685 L38.6379012,6.07562641 L40.2871833,6.07562641 L40.2871833,14.4684685 L38.6379012,14.4684685 Z M39.4625422,4.6036036 C38.8459882,4.6036036 38.3912796,4.16430884 38.3912796,3.59399634 C38.3912796,3.01597691 38.8459882,2.57668215 39.4625422,2.57668215 C40.0790963,2.57668215 40.5338049,3.01597691 40.5338049,3.59399634 C40.5338049,4.16430884 40.0790963,4.6036036 39.4625422,4.6036036 Z M42.8541033,14.4684685 L42.8541033,6.07562641 L44.4494369,6.07562641 L44.4494369,7.362683 L44.5727478,7.362683 C44.8116624,6.53804195 45.7442005,5.93690175 46.8385839,5.93690175 C47.0852055,5.93690175 47.4011895,5.96002252 47.5784488,6.00626408 L47.5784488,7.64013232 C47.4397241,7.59389077 46.9464809,7.53994229 46.6536177,7.53994229 C45.3973888,7.53994229 44.5110923,8.33375563 44.5110923,9.51291526 L44.5110923,14.4684685 L42.8541033,14.4684685 Z M49.4979871,3.34737472 L53.8524001,3.34737472 C56.0257531,3.34737472 57.5208967,4.85022523 57.5208967,7.05440597 C57.5208967,9.22775901 55.9795115,10.7229026 53.7984516,10.7229026 L51.2243384,10.7229026 L51.2243384,14.4684685 L49.4979871,14.4684685 L49.4979871,3.34737472 Z M51.2243384,4.873346 L51.2243384,9.20463823 L53.3976914,9.20463823 C54.8851281,9.20463823 55.7560107,8.43394566 55.7560107,7.05440597 C55.7560107,5.64403857 54.9159558,4.873346 53.3976914,4.873346 L51.2243384,4.873346 Z M59.7564189,14.4684685 L59.7564189,2.800183 L61.4134079,2.800183 L61.4134079,14.4684685 L59.7564189,14.4684685 Z M66.7702351,13.2122396 C68.018757,13.2122396 68.9435881,12.4184262 68.9435881,11.3779913 L68.9435881,10.676661 L66.8935459,10.8076788 C65.737507,10.884748 65.2134361,11.2778012 65.2134361,12.0176661 C65.2134361,12.7729448 65.8685248,13.2122396 66.7702351,13.2122396 Z M66.3463542,14.6071931 C64.7278998,14.6071931 63.5487402,13.6284136 63.5487402,12.0947354 C63.5487402,10.5841779 64.6739513,9.71329533 66.6700451,9.58998452 L68.9435881,9.45896678 L68.9435881,8.73451577 C68.9435881,7.84821931 68.3578618,7.34726914 67.2249437,7.34726914 C66.3001126,7.34726914 65.6604378,7.68637387 65.4754716,8.27980715 L63.872431,8.27980715 C64.0419834,6.83861205 65.3984023,5.91378097 67.302013,5.91378097 C69.4060037,5.91378097 70.5928702,6.96192286 70.5928702,8.73451577 L70.5928702,14.4684685 L68.9975366,14.4684685 L68.9975366,13.2893088 L68.8665189,13.2893088 C68.3655687,14.1293637 67.4484445,14.6071931 66.3463542,14.6071931 Z M73.915069,17.5127041 C73.7763443,17.5127041 73.3832911,17.4972903 73.2291526,17.4741695 L73.2291526,16.0483882 C73.3601703,16.071509 73.6144989,16.0792159 73.7686374,16.0792159 C74.5547438,16.0792159 75.0017455,15.7555251 75.2869018,14.9077632 L75.4102126,14.4992962 L72.3736839,6.07562641 L74.1771045,6.07562641 L76.2810952,12.7421171 L76.4121129,12.7421171 L78.5083967,6.07562641 L80.2655757,6.07562641 L77.1365639,14.8152801 C76.4198198,16.8576154 75.6260065,17.5127041 73.915069,17.5127041 Z"></path>
                        <path d="M17.9361705,0 C18.9226589,0 19.7297683,0.824441514 19.7297297,1.83206601 L19.7297297,12.824344 C19.7297297,13.8319685 18.9226204,14.6563707 17.9361319,14.6563707 L14.3488979,14.6563707 L14.3488979,12.824344 L17.9361319,12.824344 L17.9361319,1.83206601 L1.79359778,1.83206601 L1.79359778,12.824344 L5.38083188,12.824344 L5.38083188,14.6563707 L1.79359778,14.6563707 C0.807109368,14.6563707 0,13.8319685 0,12.824344 L0,1.83206601 C0,0.824441514 0.807109368,0 1.79359778,0 L17.9361705,0 Z M4.43918919,17.0990991 L9.86486486,11.7250965 L15.2905405,17.0990991 L4.43918919,17.0990991 Z" id="Icon_AirPlay"></path>
                    </g>
                </g>
            </g>
        </g>
    </g>
</svg>