<?xml version="1.0" encoding="UTF-8"?>
<svg width="61px" height="62px" viewBox="0 0 61 62" version="1.1" xmlns="http://www.w3.org/2000/svg" xmlns:xlink="http://www.w3.org/1999/xlink">
    <!-- Generator: Sketch 52.1 (67048) - http://www.bohemiancoding.com/sketch -->
    <title>Ico_Goles</title>
    <desc>Created with Sketch.</desc>
    <g id="Symbols" stroke="none" stroke-width="1" fill="none" fill-rule="evenodd">
        <g id="Tile_Goles" transform="translate(-70.000000, -60.000000)">
            <g id="Ico_Goles" transform="translate(70.000000, 59.000000)">
                <polygon id="Fill-1" fill="#303030" points="9.469 62.6914 13.469 62.6914 13.469 46.3524 9.469 46.3524"></polygon>
                <polygon id="Fill-1-Copy" fill="#303030" points="47.469 62.6914 51.469 62.6914 51.469 46.3524 47.469 46.3524"></polygon>
                <path d="M0,47.7544 L60.484,47.7544 L60.484,0.9994 L0,0.9994 L0,47.7544 Z M4,43.7554 L56.484,43.7554 L56.484,5.0004 L4,5.0004 L4,43.7554 Z" id="Fill-2" fill="#303030"></path>
                <polygon id="Fill-3" fill="#303030" points="12.051 57.3364 48.335 57.3364 48.335 53.3364 12.051 53.3364"></polygon>
                <polygon id="Fill-4" fill="#303030" points="28.291 45.9064 32.291 45.9064 32.291 2.8484 28.291 2.8484"></polygon>
                <polygon id="Fill-5" fill="#007AFF" points="9.893 16.0974 13.031 16.0974 13.031 12.9594 9.893 12.9594"></polygon>
                <polygon id="Fill-6" fill="#007AFF" points="14.603 16.0974 17.741 16.0974 17.741 12.9594 14.603 12.9594"></polygon>
                <polygon id="Fill-7" fill="#007AFF" points="19.313 16.0974 22.451 16.0974 22.451 12.9594 19.313 12.9594"></polygon>
                <polygon id="Fill-8" fill="#007AFF" points="19.313 20.8074 22.451 20.8074 22.451 17.6694 19.313 17.6694"></polygon>
                <polygon id="Fill-9" fill="#007AFF" points="19.313 25.5174 22.451 25.5174 22.451 22.3794 19.313 22.3794"></polygon>
                <polygon id="Fill-10" fill="#007AFF" points="14.603 25.5174 17.741 25.5174 17.741 22.3794 14.603 22.3794"></polygon>
                <polygon id="Fill-11" fill="#007AFF" points="9.893 25.5174 13.031 25.5174 13.031 22.3794 9.893 22.3794"></polygon>
                <polygon id="Fill-12" fill="#007AFF" points="9.893 30.2274 13.031 30.2274 13.031 27.0894 9.893 27.0894"></polygon>
                <polygon id="Fill-13" fill="#007AFF" points="9.893 34.9374 13.031 34.9374 13.031 31.7994 9.893 31.7994"></polygon>
                <polygon id="Fill-14" fill="#007AFF" points="14.603 34.9374 17.741 34.9374 17.741 31.7994 14.603 31.7994"></polygon>
                <polygon id="Fill-15" fill="#007AFF" points="19.313 34.9374 22.451 34.9374 22.451 31.7994 19.313 31.7994"></polygon>
                <polygon id="Fill-16" fill="#007AFF" points="37.252 16.0974 40.39 16.0974 40.39 12.9594 37.252 12.9594"></polygon>
                <polygon id="Fill-17" fill="#007AFF" points="41.962 16.0974 45.1 16.0974 45.1 12.9594 41.962 12.9594"></polygon>
                <polygon id="Fill-18" fill="#007AFF" points="46.672 16.0974 49.81 16.0974 49.81 12.9594 46.672 12.9594"></polygon>
                <polygon id="Fill-19" fill="#007AFF" points="46.672 20.8074 49.81 20.8074 49.81 17.6694 46.672 17.6694"></polygon>
                <polygon id="Fill-20" fill="#007AFF" points="46.672 25.5174 49.81 25.5174 49.81 22.3794 46.672 22.3794"></polygon>
                <polygon id="Fill-21" fill="#007AFF" points="46.672 30.2274 49.81 30.2274 49.81 27.0894 46.672 27.0894"></polygon>
                <polygon id="Fill-22" fill="#007AFF" points="41.962 25.5174 45.1 25.5174 45.1 22.3794 41.962 22.3794"></polygon>
                <polygon id="Fill-23" fill="#007AFF" points="37.252 25.5174 40.39 25.5174 40.39 22.3794 37.252 22.3794"></polygon>
                <polygon id="Fill-24" fill="#007AFF" points="37.252 34.9374 40.39 34.9374 40.39 31.7994 37.252 31.7994"></polygon>
                <polygon id="Fill-25" fill="#007AFF" points="41.962 34.9374 45.1 34.9374 45.1 31.7994 41.962 31.7994"></polygon>
                <polygon id="Fill-26" fill="#007AFF" points="46.672 34.9374 49.81 34.9374 49.81 31.7994 46.672 31.7994"></polygon>
            </g>
        </g>
    </g>
</svg>