<?xml version="1.0" encoding="UTF-8"?>
<svg width="75px" height="62px" viewBox="0 0 75 62" version="1.1" xmlns="http://www.w3.org/2000/svg" xmlns:xlink="http://www.w3.org/1999/xlink">
    <!-- Generator: Sketch 52.1 (67048) - http://www.bohemiancoding.com/sketch -->
    <title>Ico_Estadisticas</title>
    <desc>Created with Sketch.</desc>
    <defs>
        <polygon id="path-1" points="0 0.4798 18.1729 0.4798 18.1729 18.6528 0 18.6528"></polygon>
    </defs>
    <g id="Symbols" stroke="none" stroke-width="1" fill="none" fill-rule="evenodd">
        <g id="Tile_Estadisticas" transform="translate(-63.000000, -59.000000)">
            <g id="Ico_Estadisticas" transform="translate(63.000000, 59.000000)">
                <polygon id="Fill-1" fill="#303030" points="1.507 62 74.901 62 74.901 58 1.507 58"></polygon>
                <polygon id="Fill-2" fill="#303030" points="24.823 25.3074 15.636 33.6894 12.94 30.7344 22.127 22.3524"></polygon>
                <polygon id="Fill-3" fill="#303030" points="45.0621 30.1504 33.8931 24.6814 35.6531 21.0894 46.8211 26.5584"></polygon>
                <polygon id="Fill-4" fill="#303030" points="64.0609 16.1693 56.8749 26.3183 53.6109 24.0073 60.7959 13.8583"></polygon>
                <g id="Group-14">
                    <path d="M28.9958,15.002 C26.1908,15.002 23.9098,17.284 23.9098,20.089 C23.9098,22.894 26.1908,25.175 28.9958,25.175 C31.8008,25.175 34.0828,22.894 34.0828,20.089 C34.0828,17.284 31.8008,15.002 28.9958,15.002 M28.9958,29.175 C23.9858,29.175 19.9098,25.099 19.9098,20.089 C19.9098,15.078 23.9858,11.002 28.9958,11.002 C34.0068,11.002 38.0828,15.078 38.0828,20.089 C38.0828,25.099 34.0068,29.175 28.9958,29.175" id="Fill-5" fill="#007AFF"></path>
                    <path d="M51.9074,25.089 C49.1024,25.089 46.8214,27.371 46.8214,30.176 C46.8214,32.981 49.1024,35.262 51.9074,35.262 C54.7124,35.262 56.9944,32.981 56.9944,30.176 C56.9944,27.371 54.7124,25.089 51.9074,25.089 M51.9074,39.262 C46.8974,39.262 42.8214,35.186 42.8214,30.176 C42.8214,25.165 46.8974,21.089 51.9074,21.089 C56.9184,21.089 60.9944,25.165 60.9944,30.176 C60.9944,35.186 56.9184,39.262 51.9074,39.262" id="Fill-7" fill="#007AFF"></path>
                    <path d="M65.8137,4 C63.0087,4 60.7277,6.282 60.7277,9.087 C60.7277,11.892 63.0087,14.173 65.8137,14.173 C68.6187,14.173 70.9007,11.892 70.9007,9.087 C70.9007,6.282 68.6187,4 65.8137,4 M65.8137,18.173 C60.8037,18.173 56.7277,14.097 56.7277,9.087 C56.7277,4.076 60.8037,0 65.8137,0 C70.8247,0 74.9007,4.076 74.9007,9.087 C74.9007,14.097 70.8247,18.173 65.8137,18.173" id="Fill-9" fill="#007AFF"></path>
                    <g id="Group-13" transform="translate(0.000000, 26.000000)">
                        <path d="M9.0859,4.4798 C6.2809,4.4798 3.9999,6.7618 3.9999,9.5668 C3.9999,12.3718 6.2809,14.6528 9.0859,14.6528 C11.8909,14.6528 14.1729,12.3718 14.1729,9.5668 C14.1729,6.7618 11.8909,4.4798 9.0859,4.4798 M9.0859,18.6528 C4.0759,18.6528 -0.0001,14.5768 -0.0001,9.5668 C-0.0001,4.5558 4.0759,0.4798 9.0859,0.4798 C14.0969,0.4798 18.1729,4.5558 18.1729,9.5668 C18.1729,14.5768 14.0969,18.6528 9.0859,18.6528" id="Fill-11" fill="#007AFF"></path>
                        <mask id="mask-2" fill="white">
                            <use xlink:href="#path-1"></use>
                        </mask>
                        <g id="Clip-12"></g>
                    </g>
                </g>
            </g>
        </g>
    </g>
</svg>