<?xml version="1.0" encoding="utf-8"?>
<!-- Generator: Adobe Illustrator 15.0.0, SVG Export Plug-In . SVG Version: 6.00 Build 0)  -->
<!DOCTYPE svg PUBLIC "-//W3C//DTD SVG 1.1//EN" "http://www.w3.org/Graphics/SVG/1.1/DTD/svg11.dtd">
<svg version="1.1" id="Capa_1" xmlns="http://www.w3.org/2000/svg" xmlns:xlink="http://www.w3.org/1999/xlink" x="0px" y="0px"
	 width="22px" height="22px" viewBox="0 0 22 22" enable-background="new 0 0 22 22" xml:space="preserve">
<g>
	<defs>
		<path id="SVGID_1_" d="M3.246,19.538H3.145c-0.2-0.047-0.35-0.149-0.499-0.3c-0.1-0.148-0.151-0.351-0.151-0.552
			c0-0.047,1.1-6.848,8.3-6.848c7.202,0,8.3,6.801,8.3,6.848c0.05,0.253-0.051,0.552-0.3,0.702c-0.201,0.149-0.501,0.201-0.75,0.103
			c-0.25-0.103-0.451-0.353-0.451-0.604c-0.048-0.201-0.948-5.6-6.799-5.6c-5.85,0-6.799,5.398-6.799,5.651
			C3.896,19.289,3.595,19.538,3.246,19.538z M10.795,3.539c-1.799,0-3.25,1.45-3.25,3.25c0,1.799,1.451,3.25,3.25,3.25
			c1.8,0,3.25-1.45,3.25-3.25C14.046,4.989,12.596,3.539,10.795,3.539z M10.795,11.54c-2.6,0-4.75-2.151-4.75-4.751
			c0-2.601,2.149-4.75,4.75-4.75s4.75,2.15,4.75,4.75C15.545,9.389,13.396,11.54,10.795,11.54z"/>
	</defs>
	<clipPath id="SVGID_2_">
		<use xlink:href="#SVGID_1_"  overflow="visible"/>
	</clipPath>
	<g clip-path="url(#SVGID_2_)">
		<defs>
			<rect id="SVGID_3_" x="-1.205" y="-0.461" width="24.002" height="24"/>
		</defs>
		<clipPath id="SVGID_4_">
			<use xlink:href="#SVGID_3_"  overflow="visible"/>
		</clipPath>
		<g clip-path="url(#SVGID_4_)" enable-background="new    ">
			<g>
				<defs>
					<rect id="SVGID_5_" x="2.296" y="2.039" width="17.001" height="18"/>
				</defs>
				<clipPath id="SVGID_6_">
					<use xlink:href="#SVGID_5_"  overflow="visible"/>
				</clipPath>
				<g clip-path="url(#SVGID_6_)">
					<defs>
						<rect id="SVGID_7_" x="-1.205" y="-0.461" width="24.002" height="24"/>
					</defs>
					<clipPath id="SVGID_8_">
						<use xlink:href="#SVGID_7_"  overflow="visible"/>
					</clipPath>
					<g clip-path="url(#SVGID_8_)">
						<defs>
							<rect id="SVGID_9_" x="2.296" y="2.039" width="17.001" height="18"/>
						</defs>
						<clipPath id="SVGID_10_">
							<use xlink:href="#SVGID_9_"  overflow="visible"/>
						</clipPath>
						<rect x="-6.205" y="-5.461" clip-path="url(#SVGID_10_)" fill="#010202" width="34.001" height="34"/>
					</g>
				</g>
			</g>
		</g>
	</g>
</g>
</svg>
